<svg id="Layer_1" data-name="Layer 1" xmlns="http://www.w3.org/2000/svg" xmlns:xlink="http://www.w3.org/1999/xlink" viewBox="0 0 238.63 155.76"><defs><style>.cls-1{fill:url(#linear-gradient);}.cls-2{font-size:16.98px;font-family:SegoeUIBlack, Segoe UI;}.cls-3{font-size:5.66px;fill:#f40600;font-family:SegoeUI-Bold, Segoe UI;font-weight:700;letter-spacing:-0.04em;}.cls-4{letter-spacing:0.05em;}.cls-5{letter-spacing:0.02em;}.cls-6{letter-spacing:0.04em;}.cls-7{letter-spacing:0.04em;}</style><linearGradient id="linear-gradient" x1="91.7" y1="1.32" x2="91.7" y2="154.76" gradientUnits="userSpaceOnUse"><stop offset="0" stop-color="#00e950"/><stop offset="0.54" stop-color="#17a2b8"/></linearGradient></defs><title>Artboard 4</title><path class="cls-1" d="M94.05,73h10.44l0,24.38H94.07Zm3.6,50.08h3.29l0-24.39H97.63Zm0-51.52h3.29l0-24.38H97.63ZM62.5,77.48H72.94l0-24.39H62.48Zm3.58,25.69h3.29l0-24.38H66.06Zm0-51.52h3.29l0-24.39H66.06Zm86.75.07h10.43V27.33H152.81Zm3.57,25.69h3.29l0-24.39h-3.29Zm0-51.52h3.29l0-24.38h-3.29Zm-43,47.83h10.44l0-24.38H113.42ZM117,99.41h3.29l0-24.39H117Zm0-51.52h3.29l0-24.38H117Zm17.65,17.23H145.1V40.73H134.65Zm3.57,25.69h3.29l0-24.39h-3.29Zm0-51.53h3.29l0-24.38h-3.29Zm-95.13-38H41.24V154.76h1.87Zm138,129.73v-1.61H2.29v1.61Z"/><text class="cls-2" transform="translate(48.92 113.69)">TRADING STREET INC.</text><text class="cls-3" transform="translate(50.69 121.33)">Y<tspan class="cls-4" x="3.18" y="0">our </tspan><tspan class="cls-5" x="14.9" y="0">A</tspan><tspan class="cls-6" x="19.01" y="0">v</tspan><tspan class="cls-4" x="22.28" y="0">envue </tspan><tspan x="41.41" y="0">T</tspan><tspan class="cls-4" x="44.47" y="0">o Financial F</tspan><tspan class="cls-7" x="80.73" y="0">r</tspan><tspan class="cls-4" x="83.21" y="0">eedom</tspan></text></svg>