<svg id="Layer_1" data-name="Layer 1" xmlns="http://www.w3.org/2000/svg" xmlns:xlink="http://www.w3.org/1999/xlink" viewBox="0 0 86.53 57.21"><defs><style>.cls-1{fill:url(#linear-gradient);}.cls-2{font-size:7px;font-family:SegoeUIBlack, Segoe UI;}.cls-3{font-size:3.53px;fill:#f40600;font-family:SegoeUI-Semibold, Segoe UI;font-weight:600;}.cls-4{letter-spacing:-0.09em;}.cls-5{letter-spacing:-0.02em;}.cls-6{letter-spacing:-0.01em;}.cls-7{letter-spacing:-0.1em;}.cls-8{letter-spacing:-0.01em;}.cls-9{letter-spacing:0em;}</style><linearGradient id="linear-gradient" x1="32.37" y1="0.7" x2="32.37" y2="56.21" gradientUnits="userSpaceOnUse"><stop offset="0" stop-color="#00e950"/><stop offset="0.54" stop-color="#17a2b8"/></linearGradient></defs><title>Artboard 2</title><path class="cls-1" d="M33.22,26.65H37v8.83H33.23Zm1.3,18.11h1.19V35.94H34.51Zm0-18.64h1.19V17.3H34.51ZM21.81,28.25h3.77V19.43H21.8Zm1.29,9.3h1.19V28.72H23.09Zm0-18.64h1.19V10.08H23.09Zm31.38,0h3.78V10.11H54.48Zm1.3,9.3H57V19.4H55.77Zm0-18.64H57V.76H55.77ZM40.24,26.89H44V18.07H40.23Zm1.29,9.29h1.19V27.36H41.52Zm0-18.64h1.19V8.72H41.52Zm6.38,6.24h3.78V15H47.91Zm1.3,9.29H50.4V24.25H49.2Zm0-18.64H50.4V5.61H49.2ZM14.79.7h-.67V56.21h.67ZM64.72,47.63v-.58H0v.58Z"/><text class="cls-2" transform="translate(17.89 41.35) scale(0.87 1)">TRADING STREET INC.</text><text class="cls-3" transform="translate(19.53 44.58) scale(1.1 1)"><tspan class="cls-4">Y</tspan><tspan x="1.72" y="0">our </tspan><tspan class="cls-5" x="8.17" y="0">A</tspan><tspan class="cls-6" x="10.46" y="0">v</tspan><tspan x="12.23" y="0">envue </tspan><tspan class="cls-7" x="22.86" y="0">T</tspan><tspan x="24.46" y="0">o Financial F</tspan><tspan class="cls-8" x="44.29" y="0">r</tspan><tspan class="cls-9" x="45.57" y="0">eedom</tspan></text></svg>