<svg id="Layer_1" data-name="Layer 1" xmlns="http://www.w3.org/2000/svg" xmlns:xlink="http://www.w3.org/1999/xlink" viewBox="0 0 164.69 108.41"><defs><style>.cls-1{fill:url(#linear-gradient);}.cls-2{font-size:11.89px;font-family:SegoeUIBlack, Segoe UI;}.cls-3{font-size:3.96px;fill:#f40600;font-family:SegoeUI-Bold, Segoe UI;font-weight:700;letter-spacing:-0.04em;}.cls-4{letter-spacing:0.04em;}.cls-5{letter-spacing:0.02em;}.cls-6{letter-spacing:0.04em;}.cls-7{letter-spacing:0.05em;}.cls-8{letter-spacing:-0.05em;}.cls-9{letter-spacing:0.04em;}</style><linearGradient id="linear-gradient" x1="63.75" y1="1" x2="63.75" y2="108.43" gradientUnits="userSpaceOnUse"><stop offset="0" stop-color="#00e950"/><stop offset="0.54" stop-color="#17a2b8"/></linearGradient></defs><title>trading_street_logo</title><path class="cls-1" d="M65.4,51.22h7.31V68.28H65.41Zm2.51,35.06h2.31V69.2H67.9Zm0-36.08h2.31V33.13H67.9Zm-24.6,4.12h7.31l0-17.07H43.3Zm2.5,18h2.31l0-17.07H45.8Zm0-36.07h2.31l0-17.08H45.8Zm60.74,0h7.3V19.21h-7.31Zm2.5,18h2.3V37.2H109Zm0-36.07h2.3V1.13H109ZM79,51.69h7.31V34.61H79Zm2.5,18h2.31V52.6H81.46Zm0-36.08h2.31V16.53H81.46ZM93.83,45.67h7.31V28.59H93.82Zm2.5,18h2.31V46.58H96.32Zm0-36.07h2.31V10.51H96.32ZM29.74,1H28.43V108.43h1.31Zm96.62,90.82V90.7H1.15v1.12Z"/><text class="cls-2" transform="translate(33.8 79.67)">TRADING STREET INC.</text><text class="cls-3" transform="translate(35.04 85.02)">Y<tspan class="cls-4" x="2.23" y="0">our </tspan><tspan class="cls-5" x="10.43" y="0">A</tspan><tspan class="cls-6" x="13.31" y="0">v</tspan><tspan class="cls-7" x="15.59" y="0">envue </tspan><tspan class="cls-8" x="28.99" y="0">T</tspan><tspan class="cls-4" x="31.13" y="0">o Financial F</tspan><tspan class="cls-9" x="56.52" y="0">r</tspan><tspan class="cls-7" x="58.26" y="0">eedom</tspan></text></svg>