<svg id="Layer_1" data-name="Layer 1" xmlns="http://www.w3.org/2000/svg" xmlns:xlink="http://www.w3.org/1999/xlink" viewBox="0 0 305.76 200.64"><defs><style>.cls-1{fill:url(#linear-gradient);}.cls-2{font-size:21.83px;font-family:SegoeUIBlack, Segoe UI;}.cls-3{font-size:7.28px;fill:#f40600;font-family:SegoeUI-Bold, Segoe UI;font-weight:700;letter-spacing:-0.04em;}.cls-4{letter-spacing:0.05em;}.cls-5{letter-spacing:0.02em;}.cls-6{letter-spacing:0.04em;}.cls-7{letter-spacing:0.04em;}.cls-8{letter-spacing:0.04em;}</style><linearGradient id="linear-gradient" x1="117.43" y1="1" x2="117.43" y2="198.27" gradientUnits="userSpaceOnUse"><stop offset="0" stop-color="#00e950"/><stop offset="0.54" stop-color="#17a2b8"/></linearGradient></defs><title>trading_street_logo</title><path class="cls-1" d="M120.46,93.21h13.41l0,31.34H120.48Zm4.61,64.38h4.23l0-31.35h-4.23Zm0-66.24h4.23l0-31.35h-4.23ZM79.89,98.92H93.31l0-31.35H79.87Zm4.6,33h4.23l0-31.35H84.46Zm0-66.24h4.23l0-31.35H84.46ZM196,65.8h13.42l0-31.35H196Zm4.6,33h4.23l0-31.35h-4.23Zm0-66.24h4.23l0-31.35h-4.23ZM145.38,94.08H158.8l0-31.34H145.36Zm4.59,33h4.24l0-31.35H150Zm0-66.24h4.24l0-31.35H150ZM172.67,83h13.41l0-31.34H172.64Zm4.59,33h4.23l0-31.35h-4.23Zm0-66.24h4.23l0-31.35h-4.23ZM55,1h-2.4V198.27H55ZM232.39,167.78v-2.06H2.48v2.06Z"/><text class="cls-2" transform="translate(62.43 145.47)">TRADING STREET INC.</text><text class="cls-3" transform="translate(64.7 155.29)">Y<tspan class="cls-4" x="4.09" y="0">our </tspan><tspan class="cls-5" x="19.15" y="0">A</tspan><tspan class="cls-6" x="24.44" y="0">v</tspan><tspan class="cls-7" x="28.64" y="0">envue </tspan><tspan x="53.23" y="0">T</tspan><tspan class="cls-7" x="57.17" y="0">o Financial F</tspan><tspan class="cls-8" x="103.79" y="0">r</tspan><tspan class="cls-7" x="106.98" y="0">eedom</tspan></text></svg>