<svg id="Layer_1" data-name="Layer 1" xmlns="http://www.w3.org/2000/svg" xmlns:xlink="http://www.w3.org/1999/xlink" viewBox="0 0 191.32 128.21"><defs><style>.cls-1{fill:url(#linear-gradient);}.cls-2{font-size:13.56px;font-family:SegoeUIBlack, Segoe UI;}.cls-3{font-size:4.52px;fill:#f40600;font-family:SegoeUI-Bold, Segoe UI;font-weight:700;letter-spacing:-0.04em;}.cls-4{letter-spacing:0.05em;}.cls-5{letter-spacing:0.02em;}.cls-6{letter-spacing:0.04em;}.cls-7{letter-spacing:-0.04em;}.cls-8{letter-spacing:0.04em;}.cls-9{letter-spacing:0.04em;}</style><linearGradient id="linear-gradient" x1="73.43" y1="3.02" x2="73.43" y2="125.6" gradientUnits="userSpaceOnUse"><stop offset="0" stop-color="#00e950"/><stop offset="0.54" stop-color="#17a2b8"/></linearGradient></defs><title>trading_street_logo</title><path class="cls-1" d="M75.31,60.32h8.34V79.8H75.32Zm2.87,40h2.63l0-19.48H78.16Zm0-41.16h2.63l0-19.48H78.16ZM50.1,63.87h8.34V44.38H50.09ZM53,84.39h2.63l0-19.48H52.94Zm0-41.16h2.63l0-19.48H52.94Zm69.3.06h8.34l0-19.48h-8.33Zm2.85,20.52h2.63V44.33H125.1Zm0-41.16h2.63V3.17H125.1ZM90.8,60.86h8.34l0-19.48H90.78Zm2.85,20.53h2.63V61.91H93.64Zm0-41.16h2.63V20.74H93.64ZM107.75,54h8.34V34.51h-8.34Zm2.86,20.52h2.63l0-19.48h-2.63Zm0-41.16h2.63l0-19.48h-2.63ZM34.61,3H33.12V125.6h1.49ZM144.86,106.66v-1.28H2v1.28Z"/><text class="cls-2" transform="translate(39.25 92.79)">TRADING STREET INC.</text><text class="cls-3" transform="translate(40.66 98.9)">Y<tspan class="cls-4" x="2.54" y="0">our </tspan><tspan class="cls-5" x="11.9" y="0">A</tspan><tspan class="cls-6" x="15.19" y="0">v</tspan><tspan class="cls-4" x="17.79" y="0">envue </tspan><tspan class="cls-7" x="33.08" y="0">T</tspan><tspan class="cls-4" x="35.52" y="0">o Financial F</tspan><tspan class="cls-8" x="64.49" y="0">r</tspan><tspan class="cls-9" x="66.48" y="0">eedom</tspan></text></svg>