<svg id="Layer_1" data-name="Layer 1" xmlns="http://www.w3.org/2000/svg" viewBox="0 0 875.83 863.25"><defs><style>.cls-1{fill:#d6b335;}.cls-2,.cls-6{fill:#b8892d;}.cls-3,.cls-5{fill:#112649;}.cls-4{fill:#fff;}.cls-5{font-size:241.28px;}.cls-5,.cls-6{font-family:Gotham-Medium, Gotham;}.cls-6{font-size:75.91px;}.cls-7{letter-spacing:-0.11em;}.cls-8{fill:#1d3f6b;}</style></defs><title>nemari logo 2</title><path class="cls-1" d="M264.73,103.81H625.79a44.76,44.76,0,0,1,44.76,44.76V437.88A202.91,202.91,0,0,1,467.64,640.79h0A202.91,202.91,0,0,1,264.73,437.88V103.81a0,0,0,0,1,0,0Z" transform="translate(-189.35 396.96) rotate(-43.58)"/><path class="cls-2" d="M283.68,88H644.74a44.76,44.76,0,0,1,44.76,44.76V422.09A202.91,202.91,0,0,1,486.59,625h0A202.91,202.91,0,0,1,283.68,422.09V88a0,0,0,0,1,0,0Z" transform="translate(-162.81 193.05) rotate(-23.26)"/><path class="cls-3" d="M248.33,0H609.4a44.76,44.76,0,0,1,44.76,44.76V390.82A202.91,202.91,0,0,1,451.24,593.74h0A202.91,202.91,0,0,1,248.33,390.82V0A0,0,0,0,1,248.33,0Z"/><path class="cls-4" d="M448.5,220.13q-14.78,35.43-27.07,66.37-13.55,34.1-24.62,65l-22.89,66.29-21.16,67.81a18.59,18.59,0,0,1-6.93,4.56c-2.45.89-4.48,0-6.11-2.7Q327.5,474,327.5,454.3a140.41,140.41,0,0,1,5.34-38.58L353,343.94q9-35.43,20.13-67.74l24.65-74.46q12.31-35.9,28.35-74a54.28,54.28,0,0,1,10.27-16.15,31.08,31.08,0,0,1,16.43-9.42q10.26,0,20.13,16.6l9,20.63q28.35,70,34.51,140t37,138.62q5.34,11.22,9.86,11.22c1.65,0,4-1.8,7-5.39q40.26-71.32,51.76-138.61l25.47-146.7q1.22-7.62,7.33-16.15a28.37,28.37,0,0,1,15.47-11.21q10.18-1.35,17.72,8t6.3,17l-6.27,45.73q-5.33,39-22.77,111.52a832.65,832.65,0,0,1-49.43,144.27l-16.41,38.59q-8.61,22.44-30.35,22.44a49.66,49.66,0,0,1-25.85-9.65q-11.09-8.3-20.92-25.34a245.27,245.27,0,0,1-13.54-35.44q-3.71-12.55-8-29.61t-6.36-25.57l-16-65.05q-4.51-18.37-7.39-29.15T462.86,252Q455.48,226.41,448.5,220.13Z" transform="translate(-61.57 -28.07)"/><text class="cls-5" transform="translate(0 756.07)">Nemari</text><text class="cls-6" transform="translate(351.76 842.37)"><tspan class="cls-7">T</tspan><tspan x="40.53" y="0">echnologies</tspan></text><path class="cls-8" d="M688.38,342a210.08,210.08,0,0,1,.29,77.32C667.82,533.69,558.23,609.47,443.89,588.62a212.74,212.74,0,0,1-28.65-7.33A196,196,0,0,0,468,598.91C574.49,618.32,676.54,547.75,696,441.28A195,195,0,0,0,688.38,342Z" transform="translate(-61.57 -28.07)"/><rect class="cls-3" x="18.43" y="809.93" width="324" height="15"/></svg>