<?xml version="1.0" standalone="no"?>
<!DOCTYPE svg PUBLIC "-//W3C//DTD SVG 20010904//EN"
 "http://www.w3.org/TR/2001/REC-SVG-20010904/DTD/svg10.dtd">
<svg version="1.0" xmlns="http://www.w3.org/2000/svg"
 width="3189.000000pt" height="3189.000000pt" viewBox="0 0 3189.000000 3189.000000"
 preserveAspectRatio="xMidYMid meet">
<metadata>
Created by potrace 1.14, written by Peter Selinger 2001-2017
</metadata>
<g transform="translate(0.000000,3189.000000) scale(0.100000,-0.100000)"
fill="#000000" stroke="none">
<path d="M15418 31565 c-2 -2 -73 -6 -158 -9 -234 -10 -504 -26 -655 -41 -27
-3 -81 -7 -120 -10 -38 -3 -87 -8 -107 -11 -21 -3 -65 -7 -99 -9 -34 -3 -96
-9 -138 -14 -42 -6 -98 -13 -126 -16 -27 -4 -61 -8 -75 -10 -14 -2 -49 -7 -79
-10 -30 -4 -63 -8 -74 -11 -10 -2 -45 -6 -76 -9 -31 -4 -63 -8 -71 -10 -8 -2
-35 -7 -60 -10 -25 -3 -70 -10 -100 -15 -30 -5 -70 -12 -87 -15 -18 -3 -48 -7
-65 -10 -18 -3 -46 -8 -63 -11 -16 -2 -52 -9 -80 -14 -27 -6 -66 -12 -85 -15
-19 -2 -156 -30 -305 -60 -148 -31 -281 -58 -295 -61 -14 -3 -43 -10 -65 -16
-22 -5 -49 -12 -60 -14 -28 -5 -473 -117 -570 -144 -84 -22 -301 -86 -420
-122 -38 -12 -74 -23 -80 -24 -32 -7 -452 -148 -635 -214 -480 -173 -967 -376
-1410 -587 -134 -64 -492 -243 -565 -283 -27 -15 -95 -51 -150 -80 -55 -29
-104 -56 -110 -60 -5 -4 -37 -23 -70 -41 -33 -18 -78 -43 -100 -55 -22 -13
-58 -33 -80 -45 -58 -32 -424 -252 -535 -322 -309 -196 -711 -473 -1010 -697
-208 -156 -229 -172 -395 -305 -159 -128 -189 -152 -274 -224 -148 -125 -186
-157 -236 -201 -28 -25 -69 -61 -91 -80 -131 -113 -475 -436 -658 -616 -125
-124 -482 -498 -553 -581 -10 -12 -52 -58 -93 -103 -41 -46 -86 -96 -100 -113
-14 -16 -35 -41 -48 -56 -19 -21 -98 -115 -237 -280 -11 -13 -25 -29 -30 -35
-17 -18 -245 -307 -305 -386 -30 -40 -60 -77 -65 -84 -16 -17 -285 -387 -335
-461 -25 -36 -50 -71 -56 -78 -18 -20 -244 -362 -347 -524 -391 -615 -778
-1336 -1062 -1979 -34 -77 -69 -156 -78 -175 -61 -133 -329 -811 -353 -889 -2
-8 -55 -166 -117 -350 -62 -184 -114 -339 -115 -345 -13 -52 -26 -97 -39 -135
-8 -25 -17 -52 -19 -60 -2 -8 -24 -89 -49 -180 -47 -168 -132 -495 -141 -540
-3 -14 -10 -43 -16 -65 -5 -22 -12 -47 -13 -55 -2 -8 -21 -98 -44 -200 -22
-102 -43 -201 -46 -220 -3 -19 -10 -54 -16 -78 -5 -23 -12 -59 -15 -80 -3 -20
-7 -44 -10 -53 -4 -16 -32 -165 -38 -204 -2 -11 -6 -33 -9 -50 -4 -16 -9 -50
-12 -75 -3 -25 -8 -52 -10 -60 -2 -8 -7 -35 -10 -60 -3 -25 -10 -70 -15 -100
-5 -30 -12 -77 -16 -105 -3 -27 -8 -59 -10 -70 -2 -11 -6 -44 -10 -73 -3 -29
-7 -61 -9 -70 -1 -9 -6 -46 -10 -82 -4 -36 -9 -73 -11 -83 -2 -10 -6 -48 -9
-85 -4 -37 -8 -78 -10 -92 -2 -14 -6 -54 -10 -90 -3 -36 -8 -85 -11 -110 -4
-43 -6 -68 -19 -225 -3 -38 -8 -90 -10 -115 -2 -25 -7 -97 -10 -160 -4 -63 -8
-144 -10 -180 -28 -475 -24 -1277 9 -1760 3 -47 8 -123 11 -170 3 -47 7 -107
10 -135 2 -27 7 -81 10 -120 4 -38 8 -81 10 -95 2 -14 6 -61 10 -104 4 -43 8
-87 10 -96 2 -9 6 -48 9 -86 3 -38 8 -78 10 -89 2 -11 7 -47 10 -80 4 -33 9
-74 12 -91 3 -17 6 -46 8 -65 2 -19 6 -48 9 -64 3 -17 9 -52 12 -80 7 -56 25
-177 56 -360 6 -38 13 -79 14 -90 2 -11 8 -45 14 -75 6 -30 13 -66 15 -80 25
-132 47 -247 60 -305 8 -39 17 -82 19 -95 20 -104 140 -610 178 -745 29 -106
124 -438 154 -540 37 -126 227 -693 265 -790 17 -44 33 -87 35 -95 7 -30 185
-479 235 -595 10 -22 46 -105 80 -185 34 -80 78 -179 97 -220 19 -41 46 -100
60 -130 96 -210 422 -849 503 -985 10 -16 29 -50 42 -75 53 -96 182 -316 199
-342 11 -14 19 -29 19 -32 0 -4 8 -19 19 -34 10 -15 56 -88 101 -162 129 -210
506 -775 557 -835 5 -5 19 -26 33 -45 23 -33 215 -294 232 -315 5 -5 29 -37
54 -70 68 -89 160 -205 257 -325 100 -123 149 -183 182 -221 22 -25 51 -59 64
-75 26 -31 142 -165 151 -174 3 -3 23 -25 44 -50 36 -41 74 -83 276 -304 35
-39 202 -208 370 -376 271 -271 409 -404 575 -551 27 -24 59 -53 70 -64 21
-19 88 -78 190 -165 28 -24 52 -46 55 -49 7 -9 266 -223 410 -338 257 -206
704 -535 920 -678 41 -28 77 -52 80 -55 6 -7 121 -83 135 -90 5 -3 55 -35 110
-71 200 -131 415 -263 650 -399 222 -128 205 -119 497 -276 440 -237 1190
-582 1618 -744 25 -9 101 -38 170 -65 322 -122 754 -266 1088 -364 39 -11 102
-30 140 -41 132 -38 209 -59 382 -103 139 -36 409 -101 465 -113 118 -25 174
-37 190 -40 11 -2 31 -6 45 -9 14 -3 36 -7 50 -10 14 -2 45 -9 70 -15 46 -10
65 -14 155 -30 62 -11 103 -18 135 -25 14 -3 95 -17 180 -31 85 -14 166 -27
180 -30 14 -2 45 -6 70 -9 25 -3 56 -8 70 -10 40 -7 80 -13 170 -25 47 -6 99
-12 115 -15 41 -6 111 -14 165 -20 25 -3 63 -7 85 -10 55 -6 152 -16 200 -20
59 -5 163 -15 220 -21 28 -3 79 -7 115 -9 154 -9 250 -15 320 -20 416 -26
1430 -26 1730 0 25 2 95 7 155 10 61 3 126 7 145 9 32 4 180 15 255 21 17 1
59 5 95 9 36 4 88 9 115 12 28 3 67 7 88 9 20 3 54 7 75 9 20 3 60 8 87 11 28
3 68 8 90 10 22 2 54 6 70 9 28 5 60 9 160 22 22 3 52 7 68 10 15 2 39 6 55 8
15 3 45 7 67 11 23 3 52 8 65 10 14 3 44 8 66 11 23 2 53 7 65 9 13 3 38 8 54
10 50 9 248 44 280 51 52 10 229 45 245 49 26 6 155 34 180 38 14 3 36 8 50
11 140 32 229 53 365 87 88 22 169 42 179 44 10 3 58 15 105 29 47 13 100 27
116 32 17 4 32 8 35 9 3 1 25 7 50 14 49 14 52 15 315 95 369 113 651 210
1060 368 72 27 139 54 150 58 11 5 88 37 170 71 191 78 432 185 640 282 115
54 664 330 725 364 19 11 71 39 115 63 190 102 411 230 690 400 387 236 905
593 1310 903 110 84 209 161 220 170 11 9 76 62 145 118 69 56 149 123 179
148 30 25 75 63 100 85 109 92 284 247 370 326 229 211 322 301 521 500 333
333 620 643 860 930 25 29 50 58 55 64 6 6 40 47 75 91 36 44 68 82 71 85 32
28 579 744 579 759 0 3 10 18 23 32 12 14 27 32 32 41 6 9 25 38 44 64 69 97
361 533 361 538 0 3 17 31 39 63 48 72 215 341 242 391 11 20 28 51 38 67 175
291 497 898 629 1185 16 36 46 101 67 145 93 200 124 269 206 464 38 91 76
180 84 198 8 17 15 36 15 42 0 6 11 34 25 63 13 29 42 103 65 163 23 61 45
119 50 130 22 45 209 584 236 680 2 6 20 62 40 125 81 257 184 620 228 805 2
6 8 28 14 50 6 22 13 51 16 65 2 14 7 32 10 40 3 8 8 27 11 43 3 15 7 39 10
55 3 15 8 33 10 40 9 24 89 392 101 462 3 14 13 68 24 120 16 82 33 174 54
295 11 62 45 272 51 310 3 22 7 51 10 65 2 14 9 61 15 105 6 44 13 91 15 105
2 14 7 52 11 85 3 33 8 67 9 75 2 8 6 47 10 85 4 39 9 78 11 87 1 9 5 49 9 90
3 40 8 84 10 98 2 14 6 59 10 100 6 74 10 116 19 215 12 120 31 470 42 754 6
163 6 819 0 981 -13 349 -25 546 -51 855 -6 66 -8 97 -21 225 -4 49 -27 256
-39 350 -11 92 -18 146 -20 160 -2 8 -6 36 -9 63 -3 26 -9 68 -12 95 -3 26 -8
56 -10 67 -2 11 -9 49 -14 85 -5 36 -12 76 -14 90 -3 14 -7 41 -10 60 -3 19
-7 44 -10 55 -6 33 -19 108 -22 132 -1 12 -5 34 -8 50 -3 15 -8 42 -11 58 -3
17 -7 41 -10 55 -3 14 -19 90 -35 170 -15 80 -31 154 -33 165 -7 27 -37 171
-48 221 -4 22 -20 87 -34 145 -15 57 -29 115 -31 129 -7 36 -130 499 -160 600
-14 47 -41 137 -60 200 -82 270 -304 918 -357 1040 -8 19 -41 100 -72 180
-102 257 -248 595 -370 854 -94 201 -360 726 -385 761 -4 6 -29 51 -55 100
-38 71 -219 388 -265 465 -502 829 -1033 1565 -1594 2210 -58 66 -184 209
-213 240 -17 19 -40 45 -51 57 -71 83 -286 307 -507 528 -228 228 -311 308
-481 466 -131 121 -378 336 -559 487 -115 96 -219 182 -230 191 -39 32 -371
287 -485 372 -426 317 -1010 700 -1475 966 -145 83 -176 101 -385 215 -154 84
-630 323 -800 401 -69 32 -145 68 -170 79 -25 12 -47 22 -50 23 -3 0 -21 8
-40 17 -70 31 -126 56 -190 83 -36 15 -81 34 -100 42 -19 8 -44 19 -55 23 -11
4 -36 15 -55 23 -119 52 -454 180 -690 264 -519 184 -955 314 -1500 449 -167
41 -147 37 -270 64 -52 11 -104 23 -115 25 -29 7 -67 15 -90 19 -11 2 -99 20
-195 40 -96 20 -191 38 -210 40 -19 3 -46 8 -60 11 -14 3 -52 10 -85 15 -56 9
-73 12 -142 25 -16 3 -48 7 -73 10 -25 3 -52 8 -60 10 -8 2 -37 7 -65 11 -27
3 -57 7 -65 9 -27 5 -94 14 -140 20 -25 3 -56 8 -70 10 -24 4 -53 7 -175 21
-33 3 -68 8 -77 9 -9 2 -48 7 -85 10 -37 4 -81 9 -98 11 -16 2 -61 6 -100 9
-38 3 -81 8 -95 10 -14 2 -65 7 -115 10 -49 4 -110 8 -135 10 -74 7 -188 14
-305 21 -60 3 -146 8 -190 10 -84 5 -1172 13 -1177 9z"/>
</g>
</svg>
